PathFileType	4	(X/Y/Z)	C:/Users/beibeiliu/ov580/test_trc/User1\sequence.2_training_dense_right.trc
DataRate	CameraRate	NumFrames	NumMarkers	Units	OrigDataRate	OrigDataStartFrame	OrigNumFrames
120	120	16	19	mm	120	31	244
Frame#	Time	ThumbCMC			ThumbMCP			ThumbIP			ThumbTip			IndexMCP			IndexPIP			IndexTip			MiddleMCP			MiddlePIP			MiddleTip			RingMCP			RingPIP			RingTip			PinkyMCP			PinkyPIP			PinkyTip			BackHand1			BackHand2			BackHand3	
		X0	Y0	Z0	X1	Y1	Z1	X2	Y2	Z2	X3	Y3	Z3	X4	Y4	Z4	X5	Y5	Z5	X6	Y6	Z6	X7	Y7	Z7	X8	Y8	Z8	X9	Y9	Z9	X10	Y10	Z10	X11	Y11	Z11	X12	Y12	Z12	X13	Y13	Z13	X14	Y14	Z14	X15	Y15	Z15	X16	Y16	Z16	X17	Y17	Z17	X18	Y18	Z18	
30	0.25	135.536	77.383	28.0546	115.889	61.863	6.20995	102.234	55.9431	-14.6171	90.3609	48.5847	-32.2795	140.261	100.066	-52.9619	139.604	90.7842	-81.7607	134.63	74.0159	-102.363	170.702	96.9069	-63.858	163.837	85.3329	-94.5943	156.053	60.4004	-115.392	194.089	85.4487	-60.8832	185.973	74.0485	-89.3426	179.377	45.9591	-105.125	212.379	66.9727	-44.6824	209.734	56.7963	-68.2091	201.925	43.6949	-88.0227	200.72	90.6389	0.172239	204.247	89.1659	32.5051	168.211	100.915	21.29	
31	0.258333	137.192	80.5582	29.2947	114.679	66.4477	4.17629	100.55	62.2331	-14.8514	84.9808	54.7811	-33.8861	147.499	100.108	-52.2232	139.204	90.7566	-82.4572	134.254	69.2806	-102.473	173.335	94.7861	-65.7271	165.832	81.8919	-93.6215	150.461	56.2837	-114.713	192.528	80.5123	-61.7998	185.767	66.4271	-89.3404	172.333	45.6285	-101.272	212.904	59.2105	-43.8746	207.239	49.8189	-66.4163	191.885	36.3307	-86.4481	200.271	87.3188	-0.860734	204.835	87.9918	34.9583	174.064	99.7142	19.378	
32	0.266667	135.955	84.3343	32.3807	112.88	71.5382	5.20622	96.53	69.4977	-15.4924	83.8164	61.8311	-34.2867	149.374	100.418	-52.0074	137.052	89.5284	-82.8821	130.339	68.8904	-97.7844	173.915	91.2869	-62.0199	161.172	79.1244	-93.016	149.962	51.61	-111.037	193.167	75.3454	-59.6842	182.694	62.6686	-87.7285	168.077	36.3701	-98.9437	209.357	54.2658	-42.3445	205.903	40.3319	-65.7182	182.628	27.3597	-83.4035	204.851	82.6853	0.340759	209.217	79.9734	32.0762	176.921	99.3734	16.2115	
33	0.275	139.095	86.269	30.2486	114.302	75.8598	10.2043	97.7797	74.3454	-11.8346	81.4712	71.0799	-33.0452	148.539	99.7176	-56.5516	140.693	87.932	-81.284	130.944	63.7076	-96.6785	177.905	84.2143	-62.3197	162.924	73.7841	-92.5491	145.176	50.1713	-107.522	193.162	66.9261	-62.9579	181.594	53.7481	-87.6529	165.209	31.3255	-94.7927	206.614	45.3424	-44.599	199.341	33.0239	-65.4935	175.873	18.9796	-83.0241	205.324	78.6321	-0.0281414	207.745	77.0338	30.5581	176.331	98.1278	19.6975	
34	0.283333	142.515	88.8706	27.6816	114.866	83.1227	6.93801	102.868	80.8509	-12.011	82.2463	80.9415	-32.0307	155.641	93.5478	-55.9599	139.206	84.0176	-83.6354	127.435	62.7121	-94.8836	174.112	81.861	-66.4138	161.734	68.4935	-91.018	138.262	42.2816	-104.225	190.177	61.4013	-60.5219	178.182	47.1441	-84.482	151.749	26.7478	-92.4425	201.033	36.8917	-43.1188	190.866	23.6133	-63.2799	166.605	16.6155	-77.6755	204.949	68.4023	1.22443	207.463	69.7043	33.9779	180.648	95.1064	15.8929	
35	0.291667	146.2	90.8961	30.8971	117.904	88.7753	5.1374	101.87	90.1844	-13.2379	88.6598	87.2925	-32.0816	154.804	93.9519	-59.3053	144.251	79.0546	-80.1341	123.765	62.3435	-92.7328	175.587	74.3334	-68.1757	158.492	61.2834	-91.6623	134.405	37.8814	-100.407	189.755	51.4136	-58.8857	168.933	40.8112	-85.3142	144.306	20.0487	-88.5236	194.86	28.7557	-44.3015	183.515	18.9459	-59.5438	156.11	11.0241	-72.343	203.899	66.2147	0.228524	208.453	64.0211	35.7318	186.834	90.6544	15.9113	
36	0.3	149.891	93.4461	26.2629	122.929	91.1683	7.8576	106.049	96.7751	-18.302	90.4034	96.0008	-33.1342	160.171	86.6324	-59.2454	142.939	78.1447	-81.3853	123.22	57.8671	-90.1331	173.382	69.5568	-67.594	155.987	55.603	-89.2025	123.696	38.4047	-98.1844	184.951	45.1626	-58.3761	162.518	32.6662	-83.2295	134.937	19.8652	-84.1262	188.869	19.6686	-38.4796	169.332	8.24893	-60.2889	147.464	9.41924	-69.6903	201.356	57.1226	-0.249726	207.384	59.319	29.9923	189.166	86.582	17.5066	
37	0.308333	154.366	92.7836	28.9719	125.977	97.4418	7.41624	110.171	102.663	-19.7251	95.1059	102.642	-35.6158	161.984	82.2433	-58.0117	145.704	71.2586	-80.6917	118.142	60.8764	-90.7057	174.491	59.7273	-67.4252	153.121	47.1559	-89.0212	119.268	34.394	-93.9447	181.499	36.928	-57.9074	155.759	27.2257	-81.9663	128.479	21.1691	-82.3481	178.582	10.8881	-38.3018	157.782	3.87082	-56.3584	131.243	9.22981	-64.8965	201.639	48.6869	0.528972	208.183	48.5818	29.6212	191.699	81.3472	10.8272	
38	0.316667	158.761	95.0313	28.5189	131.805	101.023	6.10467	117.123	106.794	-20.2315	101.275	108.755	-33.7463	162.174	76.9259	-61.7251	143.305	69.7573	-82.4884	115.051	58.6235	-88.5394	173.383	51.2563	-65.2234	150.265	46.9504	-88.4198	113.665	39.4765	-94.4774	173.218	32.0433	-59.6285	152.772	22.7827	-79.1245	120.898	22.1601	-80.7905	169.767	7.98539	-34.5118	150.606	0.185926	-50.051	124.197	8.99699	-60.0772	196.034	42.0371	1.00693	203.558	45.165	30.111	194.983	75.8625	11.1193	
39	0.325	161.154	98.0174	27.7101	136.369	102.587	1.24893	123.442	106.004	-21.3784	107.027	111.642	-34.6222	164.319	76.4847	-56.7229	145.543	69.3015	-81.2867	115.128	61.8723	-89.1923	169.344	50.1739	-67.1429	144.184	42.4458	-88.9776	109.075	38.2788	-92.5627	166.127	24.0718	-58.0802	142.735	21.6327	-77.8141	111.062	23.0893	-78.0045	159.939	7.06668	-34.4844	137.338	0.22425	-48.5721	110.776	10.6802	-56.269	192.396	33.4765	0.806897	199.72	36.0441	34.3287	195.08	71.9636	10.84	
40	0.333333	165.488	95.8258	24.4169	140.172	103.18	3.92388	126.71	110.677	-19.0172	112.99	115.013	-37.0853	164.867	72.5655	-58.1609	143.842	63.6951	-79.8148	110.942	60.4258	-88.1994	166.303	41.9391	-63.5358	143.613	41.4831	-85.6989	106.459	40.6582	-92.9004	160.662	19.8151	-51.7604	136.094	19.527	-75.0758	106.398	21.281	-76.5143	149.824	1.2265	-30.241	126.685	-0.126076	-44.9759	102.332	11.4403	-53.1325	187.373	31.0753	0.880959	197.454	31.6597	33.6614	192.922	63.4206	12.3159	
41	0.341667	169.047	91.7738	24.5531	145.12	105.942	5.24654	133.083	110.566	-21.5135	117.886	119.57	-40.2639	165.075	69.2907	-59.2903	142.791	62.8555	-80.9466	114.888	63.8776	-88.9098	161.571	39.6535	-65.9755	137.016	36.5666	-85.5004	100.93	41.0362	-91.0362	152.676	16.4331	-53.4977	131.93	18.3552	-73.5066	97.5861	24.8651	-74.9197	142.084	0.723348	-26.2346	117.688	5.33526	-44.6227	95.8818	15.589	-50.9059	183.49	24.4463	4.05572	189.313	26.5721	32.5177	193.042	61.2078	12.7467	
42	0.35	171.812	88.3572	22.4307	149.454	104.322	3.63703	137.752	113.785	-23.4352	124.478	123.705	-42.2691	161.848	61.4814	-61.0306	142.687	59.4739	-79.6474	113.884	63.6223	-88.3751	156.571	33.5108	-64.74	135.139	34.4556	-84.1557	100.214	44.8132	-92.0203	148.173	18.0654	-51.4987	123.765	18.0304	-73.6006	98.2088	29.5284	-77.2341	132.563	0.809977	-25.2998	111.262	3.78026	-41.6204	88.6215	23.677	-50.7194	177.274	21.0797	4.64783	183.995	21.3321	33.1002	190.735	55.1417	9.21453	
43	0.358333	173.671	89.2719	22.3323	152.435	102.907	1.70039	142.069	113.06	-22.116	130.621	122.627	-39.4994	162.981	58.9868	-56.9572	140.469	61.7401	-84.4841	114.538	66.9754	-90.6595	154.914	34.4073	-60.2424	132.408	39.0431	-86.7776	101.011	49.7331	-93.4109	143.795	16.1948	-50.0635	117.493	21.2274	-74.5297	91.3007	31.0873	-75.5572	124.063	2.66657	-27.0688	104.916	11.6537	-42.5269	84.5795	31.1956	-49.324	171.352	19.5735	5.0883	179.691	19.0975	33.4718	187.591	48.3513	13.5299	
44	0.366667	172.565	82.6924	19.8626	156.382	102.092	1.79498	146.842	112.867	-22.3785	136.224	124.452	-41.5369	161.596	57.8479	-62.5796	142.893	60.5614	-83.0694	111.051	66.7633	-90.3652	151.041	33.6644	-63.6751	127.013	36.8018	-86.6953	97.2948	53.1216	-94.2518	135.322	16.3248	-53.3241	112.341	23.7615	-75.536	87.4836	37.0318	-76.2989	119.564	9.19159	-27.9586	96.3586	16.6185	-41.9279	83.5579	39.4804	-50.3968	165.837	15.3585	0.81744	172.56	17.0315	37.3945	186.065	46.7171	13.4186	
45	0.375	173.415	81.0893	20.4268	160.486	103.093	-2.10491	153.908	115.521	-26.0811	143.487	127.435	-45.7671	161.093	54.2419	-58.0711	142.538	60.8176	-83.9634	112.199	72.3544	-93.1495	149.291	33.4805	-63.7079	129.181	39.5734	-87.4488	96.0243	56.2458	-95.2372	133.186	18.8519	-50.0576	108.333	26.6876	-75.2833	84.6947	43.2159	-79.0443	110.22	9.27489	-28.8918	95.3886	20.4344	-42.1028	75.1937	43.0264	-50.5311	160.282	17.2716	3.15803	166.831	12.4566	38.2292	184.09	45.2787	10.0052	
